<?xml version="1.0" encoding="iso-8859-1"?>
<!-- Generator: Adobe Illustrator 19.0.0, SVG Export Plug-In . SVG Version: 6.00 Build 0)  -->
<svg xmlns="http://www.w3.org/2000/svg" xmlns:xlink="http://www.w3.org/1999/xlink" version="1.1" id="Layer_1" x="0px" y="0px" viewBox="0 0 208.566 208.566" style="enable-background:new 0 0 208.566 208.566;" xml:space="preserve" width="512px" height="512px">
<g>
	<g>
		<path d="M207.485,16.759L191.809,1.083c-1.443-1.443-3.781-1.443-5.225,0l-26.122,26.12c-0.001,0.002-0.004,0.002-0.004,0.002    l-25.743,25.742c-11.951-4.036-25.108-1.018-34.131,8.005L1.082,160.455c-1.443,1.443-1.443,3.781,0,5.225l41.802,41.802    c0.722,0.722,1.667,1.083,2.612,1.083c0.945,0,1.891-0.361,2.612-1.083l99.503-99.501c9.035-9.035,12.052-22.196,8.012-34.138    l25.727-25.729c0.001-0.002,0.004-0.002,0.004-0.002l26.129-26.128c0.693-0.693,1.083-1.633,1.083-2.612    C208.568,18.392,208.178,17.452,207.485,16.759z M84.687,87.3l26.128,26.128l-47.029,47.029l-26.128-26.128L84.687,87.3z     M148.708,70.307c-1.063,1.064-1.375,2.668-0.789,4.054c4.135,9.753,1.963,20.899-5.532,28.396l-96.89,96.888L8.92,163.067    l23.513-23.514l28.741,28.74c0.722,0.722,1.667,1.083,2.612,1.083s1.891-0.361,2.612-1.083l52.254-52.254    c1.443-1.443,1.443-3.781,0-5.225l-28.741-28.74l15.897-15.897c7.486-7.484,18.632-9.656,28.392-5.526    c1.384,0.588,2.986,0.272,4.052-0.79l24.815-24.815l10.451,10.451L148.708,70.307z M178.746,40.272l-10.451-10.451l20.902-20.9    l10.451,10.451L178.746,40.272z" fill="#e83a85"/>
	</g>
</g>
<g>
</g>
<g>
</g>
<g>
</g>
<g>
</g>
<g>
</g>
<g>
</g>
<g>
</g>
<g>
</g>
<g>
</g>
<g>
</g>
<g>
</g>
<g>
</g>
<g>
</g>
<g>
</g>
<g>
</g>
</svg>
