<?xml version="1.0" encoding="iso-8859-1"?>
<!-- Generator: Adobe Illustrator 19.0.0, SVG Export Plug-In . SVG Version: 6.00 Build 0)  -->
<svg xmlns="http://www.w3.org/2000/svg" xmlns:xlink="http://www.w3.org/1999/xlink" version="1.1" id="Capa_1" x="0px" y="0px" viewBox="0 0 511.999 511.999" style="enable-background:new 0 0 511.999 511.999;" xml:space="preserve" width="512px" height="512px">
<g>
	<g>
		<path d="M495.879,448.25h-9.402v-83.755c0-13.647-11.102-24.749-24.748-24.749h-28.295v-72.778    c0-13.646-11.102-24.748-24.748-24.748h-24.699v-63.17c0-13.646-11.102-24.748-24.748-24.748h-95.958v-9.794    c16.332-7.344,68.671-34.273,72.705-79.271c1.247-13.909-3.402-27.776-12.755-38.047c-9.151-10.049-21.602-15.614-35.058-15.668    c-11.996-0.062-23.438,4.304-32.348,12.268c-8.86-7.919-20.249-12.268-32.149-12.268c-0.067,0-0.133,0-0.2,0    c-13.457,0.054-25.907,5.619-35.059,15.669c-9.352,10.27-14.001,24.137-12.754,38.046c4.034,44.998,56.373,71.927,72.705,79.271    v9.794h-43.983c-4.118,0-7.456,3.338-7.456,7.456s3.338,7.456,7.456,7.456H359.24c5.423,0,9.835,4.412,9.835,9.835v21.083    c-2.798-1.264-5.03-3.262-7.687-5.641c-5.427-4.856-12.181-10.9-25.088-10.9c-12.907,0-19.662,6.044-25.089,10.9    c-4.606,4.122-7.935,7.101-15.144,7.101c-7.21,0-10.538-2.979-15.145-7.101c-5.427-4.856-12.182-10.9-25.089-10.9    c-12.907,0-19.662,6.044-25.089,10.9c-4.606,4.122-7.935,7.101-15.144,7.101c-7.211,0-10.54-2.979-15.148-7.101    c-5.428-4.856-12.183-10.9-25.091-10.9s-19.664,6.044-25.091,10.9c-2.659,2.379-4.892,4.377-7.691,5.642v-21.082    c0-5.423,4.412-9.835,9.835-9.835h17.178c4.118,0,7.456-3.338,7.456-7.456c0-4.118-3.338-7.456-7.456-7.456h-17.178    c-13.646,0-24.748,11.102-24.748,24.748v63.17h-24.699c-13.646,0-24.748,11.102-24.748,24.748v72.778H49.923    c-13.646,0-24.748,11.102-24.748,24.749v29.997v53.758h-9.054C7.232,448.25,0,455.482,0,464.372v19.985    c0,8.889,7.232,16.121,16.121,16.121h479.757c8.889,0,16.121-7.232,16.121-16.121v-19.985    C512,455.482,504.768,448.25,495.879,448.25z M190.518,63.906c-0.875-9.76,2.379-19.483,8.927-26.673    c6.306-6.925,14.863-10.759,24.094-10.797c0.047,0,0.092,0,0.138,0c8.338,0,16.314,3.089,22.469,8.707    c5.52,5.04,13.844,5.039,19.36,0.001c6.156-5.618,14.131-8.708,22.469-8.708c0.046,0,0.092,0,0.138,0    c9.231,0.038,17.787,3.872,24.093,10.796c6.549,7.191,9.802,16.914,8.927,26.674c-3.397,37.895-53.063,62.154-65.313,67.581    C243.552,126.071,193.923,101.891,190.518,63.906z M142.577,215.739c8.26-1.77,13.366-6.312,17.635-10.132    c4.607-4.122,7.936-7.101,15.148-7.101s10.54,2.979,15.148,7.101c5.428,4.856,12.183,10.9,25.091,10.9    c12.907,0,19.662-6.044,25.089-10.9c4.606-4.122,7.935-7.101,15.144-7.101c7.21,0,10.538,2.979,15.146,7.101    c5.427,4.856,12.182,10.9,25.089,10.9s19.662-6.044,25.089-10.9c4.606-4.122,7.935-7.101,15.144-7.101    c7.209,0,10.537,2.979,15.144,7.101c4.269,3.82,9.373,8.361,17.632,10.132v26.482H142.577V215.739z M102.966,257.133h305.72    c5.423,0,9.835,4.412,9.835,9.835v21.33c-3.373-1.263-5.919-3.418-8.994-6.021c-5.667-4.796-12.719-10.766-26.085-10.766    c-13.366,0-20.419,5.969-26.086,10.766c-4.964,4.201-8.55,7.236-16.452,7.236c-7.901,0-11.487-3.035-16.45-7.236    c-5.667-4.796-12.719-10.766-26.085-10.766c-13.366,0-20.418,5.97-26.085,10.766c-4.963,4.201-8.549,7.236-16.451,7.236    c-7.902,0-11.488-3.035-16.452-7.236c-5.667-4.797-12.719-10.766-26.085-10.766c-13.367,0-20.419,5.97-26.086,10.766    c-4.963,4.201-8.549,7.236-16.45,7.236c-7.904,0-11.491-3.035-16.454-7.236c-5.667-4.797-12.721-10.766-26.088-10.766    s-20.421,5.969-26.088,10.766c-3.076,2.603-5.624,4.759-8.998,6.022v-21.331h-0.001    C93.131,261.545,97.543,257.133,102.966,257.133z M49.923,354.659h301.564c4.118,0,7.456-3.338,7.456-7.456    s-3.338-7.456-7.456-7.456H93.131v-36.022c8.733-1.707,14.126-6.251,18.632-10.064c4.964-4.201,8.55-7.236,16.454-7.236    s11.49,3.035,16.454,7.236c5.667,4.797,12.721,10.766,26.088,10.766c13.366,0,20.418-5.969,26.085-10.766    c4.963-4.201,8.549-7.236,16.451-7.236c7.902,0,11.488,3.035,16.451,7.236c5.667,4.796,12.72,10.766,26.086,10.766    c13.366,0,20.418-5.97,26.085-10.766c4.963-4.201,8.549-7.236,16.45-7.236s11.487,3.035,16.45,7.236    c5.667,4.796,12.719,10.766,26.085,10.766c13.367,0,20.419-5.969,26.086-10.766c4.964-4.201,8.549-7.236,16.452-7.236    c7.901,0,11.487,3.035,16.45,7.236c4.505,3.813,9.898,8.356,18.629,10.064v36.022H386.18c-4.118,0-7.456,3.338-7.456,7.456    s3.338,7.456,7.456,7.456h75.549c5.423,0,9.835,4.413,9.835,9.836v21.338c-3.676-1.277-6.413-3.479-9.736-6.152    c-5.893-4.742-13.227-10.644-27.029-10.644c-13.804,0-21.136,5.906-27.027,10.65c-5.299,4.268-9.127,7.351-17.672,7.351    c-8.545,0-12.373-3.083-17.671-7.351c-5.891-4.745-13.222-10.65-27.026-10.65c-13.804,0-21.136,5.906-27.027,10.65    c-5.299,4.268-9.127,7.351-17.672,7.351c-8.545,0-12.373-3.083-17.671-7.351c-5.89-4.745-13.222-10.65-27.025-10.65    c-13.804,0-21.135,5.906-27.026,10.65c-5.299,4.268-9.127,7.351-17.671,7.351c-8.546,0-12.374-3.083-17.673-7.351    c-5.891-4.746-13.222-10.65-27.027-10.65c-13.804,0-21.135,5.906-27.026,10.65c-5.299,4.268-9.127,7.351-17.672,7.351    c-8.547,0-12.376-3.083-17.676-7.351c-5.891-4.746-13.223-10.65-27.029-10.65c-13.804,0-21.138,5.904-27.03,10.648    c-3.423,2.756-6.23,5.017-10.089,6.274v-21.464h-0.001C40.088,359.072,44.5,354.659,49.923,354.659z M40.088,401.279    c9.104-1.671,14.738-6.193,19.442-9.979c5.3-4.268,9.13-7.351,17.678-7.351c8.547,0,12.376,3.083,17.675,7.351    c5.892,4.746,13.224,10.65,27.03,10.65c13.804,0,21.135-5.906,27.026-10.65c5.299-4.268,9.127-7.351,17.672-7.351    c8.545,0,12.374,3.083,17.672,7.351c5.891,4.745,13.223,10.65,27.027,10.65s21.135-5.906,27.026-10.65    c5.299-4.268,9.127-7.351,17.672-7.351c8.544,0,12.372,3.083,17.67,7.351c5.891,4.745,13.222,10.65,27.026,10.65    c13.804,0,21.136-5.905,27.027-10.65c5.299-4.268,9.127-7.351,17.673-7.351c8.545,0,12.373,3.083,17.671,7.351    c5.891,4.745,13.222,10.65,27.026,10.65s21.136-5.906,27.027-10.65c5.299-4.268,9.127-7.351,17.672-7.351    c8.547,0,12.378,3.083,17.68,7.35c4.638,3.731,10.192,8.184,19.085,9.907v47.045H40.088V401.279z M497.087,484.358    c0,0.666-0.542,1.209-1.209,1.209H16.121c-0.667,0-1.209-0.543-1.209-1.209v-19.985c0-0.667,0.542-1.21,1.209-1.21h479.757    c0.667,0,1.209,0.543,1.209,1.21V484.358z" fill="#e83a85"/>
	</g>
</g>
<g>
	<g>
		<path d="M284.646,37.34c-12.861,0-22.746,7.76-28.82,14.349c-6.073-6.588-15.959-14.349-28.819-14.349    c-13.277,0-24.078,10.802-24.078,24.079c0,10.169,4.725,25.85,27.233,42.81c7.971,6.006,16.078,10.547,21.481,13.3    c1.288,0.655,2.735,1.002,4.184,1.002c1.449,0,2.896-0.347,4.189-1.005c5.398-2.75,13.505-7.291,21.476-13.297    c22.508-16.96,27.233-32.641,27.233-42.81C308.724,48.142,297.922,37.34,284.646,37.34z M272.517,92.318    c-5.944,4.479-12.017,8.067-16.691,10.571c-4.676-2.506-10.748-6.093-16.691-10.571c-13.732-10.347-21.294-21.32-21.294-30.899    c0-5.054,4.112-9.166,9.166-9.166c9.313,0,16.816,7.913,20.435,12.597c0.032,0.043,0.066,0.086,0.101,0.13    c2.003,2.537,5.019,3.991,8.283,3.991c3.279,0,6.308-1.467,8.311-4.025v-0.001c0.018-0.022,0.036-0.046,0.054-0.069    c3.646-4.717,11.147-12.623,20.455-12.623c5.054,0,9.166,4.112,9.166,9.166C293.811,70.997,286.249,81.971,272.517,92.318z" fill="#e83a85"/>
	</g>
</g>
<g>
</g>
<g>
</g>
<g>
</g>
<g>
</g>
<g>
</g>
<g>
</g>
<g>
</g>
<g>
</g>
<g>
</g>
<g>
</g>
<g>
</g>
<g>
</g>
<g>
</g>
<g>
</g>
<g>
</g>
</svg>
