<?xml version="1.0" encoding="iso-8859-1"?>
<!-- Generator: Adobe Illustrator 19.0.0, SVG Export Plug-In . SVG Version: 6.00 Build 0)  -->
<svg xmlns="http://www.w3.org/2000/svg" xmlns:xlink="http://www.w3.org/1999/xlink" version="1.1" id="Capa_1" x="0px" y="0px" viewBox="0 0 480 480" style="enable-background:new 0 0 480 480;" xml:space="preserve" width="512px" height="512px">
<g>
	<g>
		<rect x="120" y="232" width="16" height="16" fill="#e83a85"/>
	</g>
</g>
<g>
	<g>
		<path d="M168,232h-16v16h8v144H64V248h40v-16H56c-4.418,0-8,3.582-8,8v160c0,4.418,3.582,8,8,8h112c4.418,0,8-3.582,8-8V240    C176,235.582,172.418,232,168,232z" fill="#e83a85"/>
	</g>
</g>
<g>
	<g>
		<path d="M464,312c4.418,0,8-3.582,8-8v-32c0-13.255-10.745-24-24-24h-72v-24c0-2.122-0.844-4.156-2.344-5.656L320,164.688V144h8    c4.418,0,8-3.582,8-8V88c0-8.837-7.163-16-16-16H208c-8.837,0-16,7.163-16,16v48c0,4.418,3.582,8,8,8h8v20.688l-16.728,16.728    c-2.51-3.433-5.266-6.679-8.248-9.712l-2.744-2.728c-11.077-11.041-18.059-25.529-19.792-41.072    c4.202-0.229,7.497-3.695,7.512-7.904V72c0-4.418-3.582-8-8-8V8c0-4.418-3.582-8-8-8H16c-4.418,0-8,3.582-8,8v32    c0,4.418,3.582,8,8,8h48v16c-4.418,0-8,3.582-8,8v48c0.015,4.209,3.31,7.675,7.512,7.904c-1.732,15.54-8.711,30.025-19.784,41.064    l-2.76,2.744C24.93,187.668,15.939,209.376,16,232v216c0,17.673,14.327,32,32,32h400c13.255,0,24-10.745,24-24V348.648    c0.005-11-7.035-20.766-17.472-24.24c-3.9-1.296-6.531-4.946-6.528-9.056V312H464z M208,88h16v32h16V88h16v32h16V88h16v32h16V88    h16v40H208V88z M24,32V16h120v48H80V40c0-4.418-3.582-8-8-8H24z M152,80v32H72V80H152z M192,448c0,8.837-7.163,16-16,16H48    c-8.837,0-16-7.163-16-16V232c-0.053-18.375,7.247-36.007,20.272-48.968l2.76-2.744C69.105,166.282,77.805,147.773,79.608,128    h64.8c1.804,19.777,10.506,38.289,24.584,52.296l2.744,2.728C184.76,195.988,192.057,213.624,192,232V448z M225.472,464h-21.92    c2.879-4.843,4.415-10.366,4.448-16V232c-0.004-12.609-2.822-25.058-8.248-36.44l21.904-21.904c1.5-1.5,2.344-3.534,2.344-5.656    h48v-16h-48v-8h80v8h-16v16h16c0,2.122,0.844,4.156,2.344,5.656L360,227.312V248H248c-13.255,0-24,10.745-24,24v32    c0,4.418,3.582,8,8,8h16v3.352c0.003,4.11-2.628,7.76-6.528,9.056c-10.437,3.474-17.477,13.24-17.472,24.24V456    C224.027,458.732,224.524,461.438,225.472,464z M449.472,339.592c3.9,1.296,6.531,4.946,6.528,9.056V456c0,4.418-3.582,8-8,8H248    c-4.418,0-8-3.582-8-8V348.648c-0.003-4.11,2.628-7.76,6.528-9.056c10.437-3.474,17.477-13.24,17.472-24.24V312h168v3.352    C431.995,326.352,439.035,336.118,449.472,339.592z M240,296v-24c0-4.418,3.582-8,8-8h200c4.418,0,8,3.582,8,8v24H240z" fill="#e83a85"/>
	</g>
</g>
<g>
	<g>
		<path d="M272,432v-16h-16v24c0,4.418,3.582,8,8,8h24v-16H272z" fill="#e83a85"/>
	</g>
</g>
<g>
	<g>
		<path d="M424,416v16h-16v16h24c4.418,0,8-3.582,8-8v-24H424z" fill="#e83a85"/>
	</g>
</g>
<g>
	<g>
		<rect x="360" y="352" width="16" height="16" fill="#e83a85"/>
	</g>
</g>
<g>
	<g>
		<path d="M408,352h-16v16h8v32H296v-32h48v-16h-56c-4.418,0-8,3.582-8,8v48c0,4.418,3.582,8,8,8h120c4.418,0,8-3.582,8-8v-48    C416,355.582,412.418,352,408,352z" fill="#e83a85"/>
	</g>
</g>
<g>
</g>
<g>
</g>
<g>
</g>
<g>
</g>
<g>
</g>
<g>
</g>
<g>
</g>
<g>
</g>
<g>
</g>
<g>
</g>
<g>
</g>
<g>
</g>
<g>
</g>
<g>
</g>
<g>
</g>
</svg>
