<?xml version="1.0" encoding="UTF-8"?>
<svg enable-background="new 0 0 59.911 59.911" version="1.1" viewBox="0 0 59.911 59.911" xml:space="preserve" xmlns="http://www.w3.org/2000/svg" fill="#787878">
	<path d="m59.605 23.399c-0.241-0.281-0.593-0.443-0.965-0.443h-2.64v-14.233c0-0.975-0.793-1.768-1.768-1.768h-30.666l-2.485-4.141c-0.317-0.53-0.898-0.859-1.516-0.859h-13.798c-0.974 1e-3 -1.767 0.794-1.767 1.768v19.232h-2.729c-0.37 0-0.722 0.161-0.963 0.441-0.242 0.28-0.35 0.651-0.294 1.02l4.918 32.461c0.097 0.625 0.625 1.078 1.256 1.078h47.534c0.632 0 1.16-0.453 1.257-1.081l4.917-32.454c0.057-0.367-0.049-0.739-0.291-1.021zm-53.605-19.443h13.434l2.485 4.141c0.317 0.53 0.898 0.859 1.516 0.859h30.565v14h-1v-4h-1v-3h-1v-3h-42v3h-1v3h-1v4h-1v-19zm3 17h42v2h-42v-2zm1-3h40v1h-40v-1zm39-2h-38v-1h38v1zm4.096 40h-46.281l-4.696-31h55.674l-4.697 31z"/>
	<path d="m26.956 50.956h21v-14h-21v14zm2-12h17v10h-17v-10z"/>
	<path d="m31.956 42.956h4c0.553 0 1-0.447 1-1s-0.447-1-1-1h-4c-0.553 0-1 0.447-1 1s0.447 1 1 1z"/>
	<path d="m39.956 42.956h1c0.553 0 1-0.447 1-1s-0.447-1-1-1h-1c-0.553 0-1 0.447-1 1s0.447 1 1 1z"/>
	<path d="m42.956 44.956h-11c-0.553 0-1 0.447-1 1s0.447 1 1 1h11c0.553 0 1-0.447 1-1s-0.447-1-1-1z"/>
</svg>
