<?xml version="1.0" encoding="utf-8"?>
<!-- Generator: Adobe Illustrator 17.0.0, SVG Export Plug-In . SVG Version: 6.00 Build 0)  -->
<!DOCTYPE svg PUBLIC "-//W3C//DTD SVG 1.1//EN" "http://www.w3.org/Graphics/SVG/1.1/DTD/svg11.dtd">
<svg version="1.1" id="Layer_1" xmlns="http://www.w3.org/2000/svg" xmlns:xlink="http://www.w3.org/1999/xlink" x="0px" y="0px"
	 width="79.193px" height="79.532px" viewBox="5.734 10.234 79.193 79.532" enable-background="new 5.734 10.234 79.193 79.532"
	 xml:space="preserve">
<circle fill="#EA4E85" cx="477.118" cy="50" r="50"/>
<text transform="matrix(1 0 0 1 438.3653 60.457)" fill="#FFFFFF" font-family="'MyriadPro-Bold'" font-size="22">Naming</text>
<polygon fill="#FFFFFF" points="505.308,64.244 439.475,64.244 437.274,61.699 505.308,61.699 "/>
<g>
	<g>
		<path fill="#FFFFFF" d="M43.48,81.926c-0.693-0.604-1.347-1.262-2.089-1.797c-0.692-0.498-1.433-1.018-2.234-1.25
			c-0.93-0.269-1.561-0.778-1.305-1.641c0.161-0.542,0.967-1.252,1.499-1.265c4.003-0.102,8.011-0.099,12.013,0.015
			c0.517,0.015,1.29,0.789,1.42,1.337c0.093,0.388-0.637,1.346-1.103,1.423c-1.296,0.213-2.104,0.861-2.792,1.907
			c-0.339,0.516-0.949,0.853-1.437,1.271C46.129,81.926,44.804,81.926,43.48,81.926z"/>
		<path fill="#FFFFFF" d="M46.034,18.074c0.271,0.813,0.712,1.613,0.776,2.442c0.124,1.595,0.043,3.208,0.031,4.813
			c-0.008,1.013-0.375,1.819-1.52,1.807c-1.144-0.011-1.49-0.827-1.493-1.838c-0.005-1.747-0.1-3.502,0.048-5.236
			c0.059-0.687,0.665-1.326,1.022-1.988C45.277,18.074,45.656,18.074,46.034,18.074z"/>
		<path fill="#FFFFFF" d="M51.573,68.046c0.379,0.341,0.849,0.623,1.117,1.036c0.582,0.898-0.06,2.126-1.193,2.139
			c-4.109,0.047-8.22,0.037-12.327-0.05c-0.455-0.01-1.112-0.577-1.278-1.03c-0.143-0.391,0.135-1.257,0.482-1.445
			c0.937-0.51,0.731-1.171,0.56-1.91c-0.695-3.006-2.549-5.332-4.475-7.612c-2.083-2.465-4.005-4.997-4.743-8.256
			c-2.025-8.938,4.727-18.222,13.861-18.993c9.584-0.809,17.197,5.76,17.694,15.34c0.18,3.476-0.912,6.612-3.014,9.374
			c-1.429,1.877-3.079,3.605-4.341,5.584c-1.116,1.751-1.833,3.757-2.726,5.65C51.317,67.931,51.445,67.989,51.573,68.046z
			 M32.305,44.79c0.295,0.307,0.569,0.817,0.959,0.931c0.343,0.101,0.888-0.154,1.208-0.416c0.255-0.208,0.328-0.659,0.444-1.014
			c0.991-3.04,2.993-5.196,5.837-6.567c0.829-0.4,1.464-0.83,0.99-1.794c-0.454-0.925-1.252-0.628-1.961-0.294
			c-3.16,1.491-5.428,3.844-6.765,7.077C32.768,43.318,32.59,43.953,32.305,44.79z"/>
		<path fill="#FFFFFF" d="M45.224,75.113c-1.838,0.002-3.675-0.008-5.513,0.005c-1.013,0.007-1.826-0.308-1.9-1.429
			c-0.083-1.257,0.829-1.606,1.856-1.612c3.863-0.021,7.727,0,11.591,0.011c1.02,0.003,1.637,0.513,1.598,1.546
			c-0.038,1.02-0.7,1.476-1.695,1.477C49.182,75.111,47.203,75.111,45.224,75.113z"/>
		<path fill="#FFFFFF" d="M30.415,33.605c-0.559-0.321-1.017-0.479-1.334-0.784c-1.359-1.307-2.68-2.654-4.008-3.993
			c-0.693-0.698-0.897-1.512-0.15-2.235c0.72-0.697,1.539-0.583,2.255,0.133c1.366,1.367,2.782,2.69,4.071,4.125
			c0.331,0.368,0.46,1.14,0.329,1.632C31.464,32.912,30.853,33.209,30.415,33.605z"/>
		<path fill="#FFFFFF" d="M64.958,26.077c0.3,0.253,0.853,0.501,0.991,0.894c0.158,0.453,0.151,1.219-0.133,1.529
			c-1.46,1.594-2.985,3.14-4.606,4.566c-0.332,0.292-1.368,0.227-1.729-0.082s-0.592-1.404-0.345-1.683
			c1.519-1.722,3.181-3.319,4.822-4.929C64.132,26.201,64.483,26.209,64.958,26.077z"/>
		<path fill="#FFFFFF" d="M64.744,67.992c-0.588-0.378-1.063-0.591-1.418-0.93c-1.259-1.198-2.478-2.438-3.71-3.665
			c-0.707-0.704-1.076-1.515-0.289-2.34c0.844-0.885,1.689-0.522,2.44,0.234c1.324,1.333,2.699,2.621,3.941,4.026
			c0.318,0.36,0.408,1.149,0.255,1.631C65.83,67.364,65.204,67.622,64.744,67.992z"/>
		<path fill="#FFFFFF" d="M26.068,67.768c-1.306-0.032-2.061-1.315-1.294-2.189c1.454-1.657,3.013-3.235,4.66-4.697
			c0.333-0.296,1.416-0.145,1.844,0.193c0.334,0.263,0.477,1.392,0.208,1.694c-1.496,1.678-3.135,3.23-4.753,4.797
			C26.559,67.736,26.212,67.728,26.068,67.768z"/>
		<path fill="#FFFFFF" d="M69.578,48.45c-0.94-0.001-1.881,0.004-2.821-0.002c-0.937-0.006-1.576-0.445-1.597-1.406
			c-0.02-0.917,0.496-1.52,1.467-1.531c2.021-0.023,4.043-0.033,6.064,0.013c0.923,0.021,1.515,0.532,1.454,1.526
			c-0.06,0.972-0.673,1.393-1.604,1.4C71.553,48.456,70.565,48.451,69.578,48.45z"/>
		<path fill="#FFFFFF" d="M20.943,48.45c-0.94,0.001-1.88,0.012-2.819-0.002C17.2,48.434,16.57,48,16.515,47.042
			c-0.062-1.068,0.609-1.532,1.59-1.544c1.926-0.023,3.853-0.016,5.779,0.011c0.988,0.014,1.669,0.535,1.62,1.543
			c-0.048,0.991-0.721,1.447-1.741,1.404C22.824,48.418,21.883,48.449,20.943,48.45z"/>
	</g>
</g>
</svg>
