<?xml version="1.0" encoding="iso-8859-1"?>
<!-- Generator: Adobe Illustrator 19.0.0, SVG Export Plug-In . SVG Version: 6.00 Build 0)  -->
<svg xmlns="http://www.w3.org/2000/svg" xmlns:xlink="http://www.w3.org/1999/xlink" version="1.1" id="Capa_1" x="0px" y="0px" viewBox="0 0 511.999 511.999" style="enable-background:new 0 0 511.999 511.999;" xml:space="preserve" width="512px" height="512px">
<g>
	<g>
		<path d="M506.763,86.07c-97.36-31.414-180.957-70.201-255.907-2.209c-39.537-23.782-58.076-38.68-90.328-38.68    c-17.212,0-38.081,4.092-72.032,14.12c-4.004,1.182-6.291,5.387-5.107,9.39c1.182,4.002,5.385,6.294,9.39,5.107    c32.035-9.463,52.296-13.5,67.75-13.5c27.77,0,42.868,12.734,83.77,37.258v344.89c-5.85-4.647-11.902-8.748-18.103-12.261    c-3.632-2.061-8.246-0.781-10.303,2.85c-2.058,3.632-0.781,8.245,2.85,10.303c9.722,5.509,19.076,12.672,27.803,21.294    c2.895,2.867,7.586,2.914,10.531,0.091c68.687-65.619,144.911-28.604,245.173,1.769c4.862,1.471,9.75-2.175,9.75-7.234V93.263    C512,89.983,509.885,87.076,506.763,86.07z M496.883,449.03c-89.285-27.735-167.16-61.751-237.469-6.365V96.515    c67.357-62.628,141.827-28.999,237.469,2.24V449.03z" fill="#787878"/>
	</g>
</g>
<g>
	<g>
		<path d="M196.604,417.955c-20.006-5.482-40.5-5.962-61.071-3.313c6.186-93.698-23.253-223.009-68.611-215.316    c-46.56,6.93-51.333,150.8-24.861,241.625c-1.701,0.594-20.814,7.251-22.663,7.251c-2.059,0-4.281-1.661-4.281-4.345V101.831    c0-1.865,1.19-3.514,2.962-4.104c19.484-6.482,33.663-11.125,45.98-15.058c3.977-1.27,6.172-5.522,4.902-9.499    c-1.27-3.977-5.524-6.169-9.499-4.901c-12.378,3.952-26.613,8.613-46.155,15.115C5.347,86.032,0,93.447,0,101.831v342.026    c0,10.73,8.702,19.461,19.398,19.461c20.523,0,105.383-49.369,173.212-30.784c4.022,1.104,8.184-1.267,9.287-5.292    C203,423.216,200.631,419.058,196.604,417.955z M46.198,259.8c5.893-29.948,15.548-43.435,22.507-45.417    c11.076-2.642,23.492,21.586,28.01,32.058c9.783,22.656,16.045,50.767,19.658,75.38c-28.09,1.602-54.905-8.971-74.374-29.286    C42.794,281.658,44.131,270.363,46.198,259.8z M41.112,312.262c21.199,17.34,48.297,26.49,77.214,24.562    c0.994,8.797,1.742,17.714,2.237,26.634c-19.447,19.978-44.757,33.229-72.169,37.848    C43.445,373.786,40.528,342.448,41.112,312.262z M120.213,417.15c-21.809,4.313-42.93,11.413-63.874,18.778    c-1.853-6.429-3.51-13.068-4.991-19.799c25.831-4.433,49.965-15.739,69.878-32.639    C121.352,394.939,121.034,406.248,120.213,417.15z" fill="#787878"/>
	</g>
</g>
<g>
	<g>
		<path d="M225.023,122.275c-57.284-36.667-81.963-27.641-188.427,8.264c-3.956,1.333-6.081,5.621-4.747,9.577    c1.339,3.971,5.641,6.078,9.577,4.747c106.006-35.749,124.43-42.512,175.446-9.856c3.517,2.251,8.19,1.226,10.441-2.291    C229.565,129.2,228.539,124.525,225.023,122.275z" fill="#787878"/>
	</g>
</g>
<g>
	<g>
		<path d="M225.023,164.81c-57.347-36.709-82.082-27.6-188.427,8.263c-3.956,1.333-6.081,5.621-4.747,9.577    c1.339,3.971,5.641,6.078,9.577,4.747l3.5-1.18c102.942-34.716,121.491-40.973,171.946-8.676c3.517,2.25,8.19,1.225,10.441-2.291    C229.564,171.735,228.538,167.06,225.023,164.81z" fill="#787878"/>
	</g>
</g>
<g>
	<g>
		<path d="M225.024,208.147c-38.838-24.866-62.897-28.783-107.268-17.455c-4.045,1.032-6.487,5.148-5.454,9.193    c1.032,4.044,5.148,6.488,9.193,5.453c40.384-10.309,59.997-7.115,95.378,15.54c3.508,2.246,8.186,1.233,10.441-2.29    C229.565,215.073,228.54,210.398,225.024,208.147z" fill="#787878"/>
	</g>
</g>
<g>
	<g>
		<path d="M225.024,251.482c-33.523-21.46-55.575-26.939-87.385-21.712c-4.119,0.676-6.909,4.564-6.233,8.683    c0.676,4.119,4.564,6.915,8.684,6.233c28.225-4.636,46.165-0.075,76.785,19.527c1.262,0.808,2.673,1.194,4.067,1.194    C228.473,265.407,231.367,255.544,225.024,251.482z" fill="#787878"/>
	</g>
</g>
<g>
	<g>
		<path d="M225.023,294.817c-24.688-15.796-45.672-25.204-73.967-23.306c-4.165,0.279-7.315,3.883-7.035,8.047    c0.279,4.166,3.866,7.291,8.048,7.035c21.414-1.443,38.378,4.046,64.806,20.956c1.262,0.807,2.673,1.193,4.067,1.193    C228.476,308.743,231.367,298.876,225.023,294.817z" fill="#787878"/>
	</g>
</g>
<g>
	<g>
		<path d="M225.025,338.153c-21.969-14.071-41.634-23.461-66.199-23.556c-0.01,0-0.02,0-0.029,0c-4.161,0-7.541,3.365-7.558,7.53    c-0.016,4.174,3.355,7.572,7.529,7.587c18.372,0.071,34.12,5.808,58.103,21.169c3.514,2.252,8.19,1.227,10.441-2.289    C229.565,345.079,228.54,340.404,225.025,338.153z" fill="#787878"/>
	</g>
</g>
<g>
	<g>
		<path d="M225.026,381.488c-21.143-13.543-39.99-22.723-63.243-23.502c-4.172-0.135-7.667,3.129-7.807,7.301s3.128,7.667,7.3,7.807    c17.399,0.582,32.468,6.308,55.597,21.122c3.515,2.252,8.19,1.227,10.442-2.289C229.565,388.415,228.54,383.74,225.026,381.488z" fill="#787878"/>
	</g>
</g>
<g>
	<g>
		<path d="M474.547,116.873c-110.176-35.952-134.929-45.135-194.431-8.299c-2.225,1.378-3.58,3.808-3.58,6.426v117.939    c0,2.742,1.485,5.27,3.881,6.603c2.395,1.333,5.323,1.267,7.657-0.176c52.988-32.805,72.114-25.954,181.786,9.819    c4.882,1.587,9.902-2.048,9.902-7.187V124.059C479.762,120.788,477.657,117.888,474.547,116.873z M464.644,231.582    c-50.499-16.461-81.719-26.389-107.352-28.244c-24.822-1.798-43.198,3.889-65.639,16.374V119.239    c50.014-30.124,70.333-23.193,172.991,10.305V231.582z" fill="#787878"/>
	</g>
</g>
<g>
	<g>
		<path d="M474.545,277.681c-41.101-13.407-79.574-26.386-106.772-30.322c-4.125-0.596-7.965,2.266-8.563,6.398    c-0.598,4.132,2.266,7.965,6.398,8.563c26.093,3.776,64.435,16.746,104.251,29.734c3.971,1.295,8.236-0.878,9.53-4.843    C480.683,283.243,478.515,278.976,474.545,277.681z" fill="#787878"/>
	</g>
</g>
<g>
	<g>
		<path d="M344.071,253.238c-0.541-4.138-4.347-7.049-8.476-6.513c-17.01,2.227-33.083,8.792-55.48,22.657    c-3.548,2.198-4.645,6.856-2.448,10.405c2.2,3.553,6.859,4.642,10.405,2.448c20.43-12.65,34.768-18.595,49.485-20.522    C341.696,261.171,344.613,257.377,344.071,253.238z" fill="#787878"/>
	</g>
</g>
<g>
	<g>
		<path d="M474.545,315.977c-110.737-36.31-135.579-44.732-194.431-8.299c-3.548,2.198-4.645,6.856-2.448,10.405    c2.199,3.549,6.86,4.643,10.405,2.448c52.988-32.805,72.114-25.954,181.786,9.819c3.971,1.295,8.236-0.878,9.53-4.843    C480.683,321.539,478.515,317.272,474.545,315.977z" fill="#787878"/>
	</g>
</g>
<g>
	<g>
		<path d="M474.545,354.273c-110.985-36.2-135.367-44.863-194.431-8.299c-3.548,2.198-4.645,6.856-2.448,10.405    c2.199,3.549,6.86,4.644,10.405,2.448c52.988-32.805,72.114-25.954,181.786,9.819c3.971,1.295,8.236-0.878,9.53-4.843    C480.683,359.835,478.515,355.568,474.545,354.273z" fill="#787878"/>
	</g>
</g>
<g>
	<g>
		<path d="M474.545,392.569c-110.985-36.2-135.368-44.865-194.431-8.299c-3.548,2.198-4.645,6.856-2.448,10.405    c2.199,3.549,6.86,4.643,10.405,2.448c52.982-32.799,72.116-25.953,181.786,9.819c3.971,1.295,8.236-0.878,9.53-4.843    C480.683,398.131,478.515,393.864,474.545,392.569z" fill="#787878"/>
	</g>
</g>
<g>
	<g>
		<path d="M372.231,131.257c-13.352,0-24.214,10.863-24.214,24.215c0,13.352,10.862,24.215,24.214,24.215    s24.215-10.862,24.215-24.215C396.446,142.12,385.583,131.257,372.231,131.257z M372.231,164.571    c-5.017,0-9.097-4.082-9.097-9.098c0-5.017,4.082-9.098,9.097-9.098c5.018,0,9.098,4.082,9.098,9.098    C381.329,160.49,377.248,164.571,372.231,164.571z" fill="#787878"/>
	</g>
</g>
<g>
	<g>
		<path d="M372.231,108.084c-4.175,0-7.558,3.383-7.558,7.558v5.075c0,4.175,3.383,7.558,7.558,7.558    c4.175,0,7.558-3.383,7.558-7.558v-5.075C379.789,111.467,376.406,108.084,372.231,108.084z" fill="#787878"/>
	</g>
</g>
<g>
	<g>
		<path d="M356.092,123.841l-3.262-3.887c-2.683-3.197-7.452-3.614-10.648-0.931c-3.198,2.684-3.615,7.452-0.931,10.648l3.262,3.887    c2.692,3.207,7.46,3.606,10.648,0.931C358.358,131.805,358.776,127.037,356.092,123.841z" fill="#787878"/>
	</g>
</g>
<g>
	<g>
		<path d="M339.946,141.465l-4.998-0.881c-4.106-0.73-8.031,2.021-8.756,6.131c-0.726,4.111,2.021,8.031,6.131,8.756    c4.802,0.813,5.202,0.997,6.319,0.997c3.599,0,6.788-2.581,7.434-6.247C346.803,146.11,344.057,142.189,339.946,141.465z" fill="#787878"/>
	</g>
</g>
<g>
	<g>
		<path d="M349.233,168.11c-2.088-3.614-6.709-4.852-10.326-2.765l-4.395,2.539c-6.664,3.848-3.937,14.105,3.787,14.105    c3.109,0,4.601-1.711,8.168-3.551C350.081,176.347,351.32,171.724,349.233,168.11z" fill="#787878"/>
	</g>
</g>
<g>
	<g>
		<path d="M363.148,179.787c-3.923-1.428-8.259,0.595-9.688,4.517l-1.736,4.768c-1.428,3.922,0.595,8.259,4.517,9.688    c3.946,1.434,8.267-0.617,9.688-4.517l1.736-4.768C369.094,185.554,367.072,181.216,363.148,179.787z" fill="#787878"/>
	</g>
</g>
<g>
	<g>
		<path d="M392.738,189.074l-1.736-4.769c-1.429-3.923-5.767-5.946-9.688-4.517c-3.923,1.429-5.945,5.767-4.517,9.688    c1.059,1.793,1.65,9.743,8.839,9.743C390.852,199.219,394.538,194.017,392.738,189.074z" fill="#787878"/>
	</g>
</g>
<g>
	<g>
		<path d="M409.951,167.882l-4.395-2.539c-3.617-2.087-8.238-0.85-10.326,2.765c-2.087,3.615-0.85,8.239,2.765,10.326    c3.515,1.813,5.068,3.551,8.168,3.551c2.612,0,5.152-1.355,6.553-3.779C414.804,174.593,413.566,169.969,409.951,167.882z" fill="#787878"/>
	</g>
</g>
<g>
	<g>
		<path d="M418.269,146.715c-0.725-4.11-4.64-6.857-8.756-6.131l-4.999,0.881c-4.111,0.725-6.857,4.644-6.131,8.756    c0.646,3.667,3.836,6.247,7.435,6.247c1.112,0,1.412-0.165,6.32-0.997C416.249,154.746,418.995,150.827,418.269,146.715z" fill="#787878"/>
	</g>
</g>
<g>
	<g>
		<path d="M402.279,119.021c-3.199-2.683-7.966-2.266-10.648,0.933l-3.261,3.887c-4.152,4.948-0.551,12.416,5.787,12.416    c5.091,0,6.767-4.402,9.056-6.588C405.895,126.472,405.478,121.705,402.279,119.021z" fill="#787878"/>
	</g>
</g>
<g>
</g>
<g>
</g>
<g>
</g>
<g>
</g>
<g>
</g>
<g>
</g>
<g>
</g>
<g>
</g>
<g>
</g>
<g>
</g>
<g>
</g>
<g>
</g>
<g>
</g>
<g>
</g>
<g>
</g>
</svg>
