<?xml version="1.0" encoding="utf-8"?>
<!-- Generator: Adobe Illustrator 17.0.0, SVG Export Plug-In . SVG Version: 6.00 Build 0)  -->
<!DOCTYPE svg PUBLIC "-//W3C//DTD SVG 1.1//EN" "http://www.w3.org/Graphics/SVG/1.1/DTD/svg11.dtd">
<svg version="1.1" id="Layer_1" xmlns="http://www.w3.org/2000/svg" xmlns:xlink="http://www.w3.org/1999/xlink" x="0px" y="0px"
	 width="79.193px" height="79.532px" viewBox="5.734 10.234 79.193 79.532" enable-background="new 5.734 10.234 79.193 79.532"
	 xml:space="preserve">
<circle fill="#EA4E85" cx="477.118" cy="50" r="50"/>
<text transform="matrix(1 0 0 1 438.3653 60.457)" fill="#FFFFFF" font-family="'MyriadPro-Bold'" font-size="22">Naming</text>
<polygon fill="#FFFFFF" points="505.308,64.244 439.475,64.244 437.274,61.699 505.308,61.699 "/>
<g>
	<path fill="#FFFFFF" d="M45.331,24.62c-14.102,0-25.38,11.278-25.38,25.38s11.278,25.38,25.38,25.38
		c2.26,0,4.227-1.967,4.227-4.227c0-1.128-0.275-1.967-1.128-2.824c-0.55-0.839-1.114-1.678-1.114-2.806
		c0-2.26,1.967-4.245,4.227-4.245h5.066c7.907,0,14.102-6.194,14.102-14.102C70.711,34.77,59.433,24.62,45.331,24.62L45.331,24.62z
		 M29.826,50c-2.26,0-4.227-1.967-4.227-4.227s1.967-4.227,4.227-4.227c2.256,0,4.227,1.967,4.227,4.227S32.082,50,29.826,50
		L29.826,50z M38.28,38.722c-2.256,0-4.227-1.971-4.227-4.227c0-2.26,1.971-4.227,4.227-4.227c2.26,0,4.227,1.967,4.227,4.227
		C42.507,36.751,40.54,38.722,38.28,38.722L38.28,38.722z M52.382,38.722c-2.256,0-4.227-1.971-4.227-4.227
		c0-2.26,1.971-4.227,4.227-4.227c2.26,0,4.227,1.967,4.227,4.227C56.609,36.751,54.642,38.722,52.382,38.722L52.382,38.722z
		 M60.853,50c-2.26,0-4.245-1.967-4.245-4.227s1.985-4.227,4.245-4.227c2.242,0,4.227,1.967,4.227,4.227S63.096,50,60.853,50
		L60.853,50z"/>
</g>
</svg>
