<?xml version="1.0" encoding="utf-8"?>
<!-- Generator: Adobe Illustrator 17.0.0, SVG Export Plug-In . SVG Version: 6.00 Build 0)  -->
<!DOCTYPE svg PUBLIC "-//W3C//DTD SVG 1.1//EN" "http://www.w3.org/Graphics/SVG/1.1/DTD/svg11.dtd">
<svg version="1.1" id="Layer_1" xmlns="http://www.w3.org/2000/svg" xmlns:xlink="http://www.w3.org/1999/xlink" x="0px" y="0px"
	 width="92px" height="97px" viewBox="0 0 92 97" enable-background="new 0 0 92 97" xml:space="preserve">
<circle fill="#C72E70" cx="46" cy="48.5" r="39.766"/>
<circle fill="#EA4E85" cx="477.118" cy="50" r="50"/>
<text transform="matrix(1 0 0 1 438.3653 60.457)" fill="#FFFFFF" font-family="'MyriadPro-Bold'" font-size="22">Naming</text>
<polygon fill="#FFFFFF" points="505.308,64.244 439.475,64.244 437.274,61.699 505.308,61.699 "/>
<g>
	<path fill="#FFFFFF" d="M58.197,31.617c-1.057,1.055-2.094,2.082-3.119,3.119c-0.196,0.198-0.328,0.065-0.48-0.034
		c-1.957-1.274-4.082-2.147-6.385-2.516c-6.561-1.052-12.161,0.833-16.543,5.828c-7.875,8.977-4.588,23.112,6.388,27.812
		c10.686,4.576,22.859-2.262,24.475-13.779c0.614-4.379-0.305-8.453-2.723-12.169c-0.164-0.252-0.164-0.392,0.055-0.61
		c1.003-0.999,1.986-2.018,2.981-3.035c5.889,7.462,6.653,20.21-1.941,29c-8.415,8.606-22.48,8.869-31.159,0.579
		c-8.935-8.534-9.409-22.507-1.057-31.423C37.145,25.36,50.164,25.505,58.197,31.617z"/>
	<path fill="#FFFFFF" d="M51.566,38.298c-1.094,1.096-2.149,2.164-3.225,3.212c-0.094,0.091-0.342,0.102-0.486,0.053
		c-3.347-1.151-6.982-0.22-9.275,2.514c-2.197,2.62-2.669,5.618-1.36,8.764c1.26,3.03,3.629,4.805,6.904,5.147
		c6.327,0.661,10.966-5.339,8.863-11.378c-0.042-0.121-0.031-0.333,0.047-0.414c1.051-1.09,2.119-2.164,3.189-3.247
		c2.481,3.652,3.075,10.76-1.881,15.794c-4.883,4.96-12.913,5.217-18.04,0.569c-5.258-4.767-5.829-12.773-1.279-18.158
		C39.734,35.576,47.165,35.538,51.566,38.298z"/>
	<path fill="#FFFFFF" d="M64.619,25.138c-0.126,1.72-0.244,3.336-0.367,5.018c1.665-0.137,3.291-0.271,5.027-0.413
		c-0.239,0.261-0.396,0.439-0.56,0.61c-1.326,1.386-2.646,2.777-3.989,4.146c-0.17,0.173-0.452,0.289-0.697,0.325
		c-0.565,0.083-1.143,0.079-1.709,0.157c-0.22,0.03-0.473,0.135-0.627,0.29c-4.261,4.283-8.512,8.576-12.755,12.877
		c-0.111,0.112-0.171,0.356-0.138,0.514c0.456,2.228-0.836,4.239-3.05,4.716c-2.033,0.437-4.045-0.917-4.526-3.045
		c-0.593-2.624,1.807-5.075,4.489-4.56c0.376,0.072,0.594-0.011,0.851-0.271c4.184-4.24,8.381-8.466,12.562-12.71
		c0.178-0.181,0.26-0.483,0.323-0.744c0.066-0.275,0.1-0.573,0.07-0.853c-0.099-0.924,0.355-1.533,1.004-2.126
		c1.267-1.158,2.471-2.385,3.703-3.582C64.328,25.392,64.434,25.304,64.619,25.138z"/>
</g>
<g>
	<path fill="#FFFFFF" d="M44.151-84.074c-0.693-0.604-1.347-1.262-2.089-1.797c-0.692-0.498-1.433-1.018-2.234-1.25
		c-0.93-0.269-1.561-0.778-1.305-1.641c0.161-0.542,0.967-1.252,1.499-1.265c4.003-0.102,8.011-0.099,12.013,0.015
		c0.517,0.015,1.29,0.789,1.42,1.337c0.093,0.388-0.637,1.346-1.103,1.423c-1.296,0.213-2.104,0.861-2.792,1.907
		c-0.339,0.516-0.949,0.853-1.437,1.271C46.8-84.074,45.475-84.074,44.151-84.074z"/>
	<path fill="#FFFFFF" d="M46.705-147.926c0.271,0.813,0.712,1.613,0.776,2.442c0.124,1.595,0.043,3.208,0.031,4.813
		c-0.008,1.013-0.375,1.819-1.52,1.807c-1.144-0.011-1.49-0.827-1.493-1.838c-0.005-1.747-0.1-3.502,0.048-5.236
		c0.059-0.687,0.665-1.326,1.022-1.988C45.948-147.926,46.327-147.926,46.705-147.926z"/>
	<path fill="#FFFFFF" d="M52.244-97.954c0.379,0.341,0.849,0.623,1.117,1.036c0.582,0.898-0.06,2.126-1.193,2.139
		c-4.109,0.047-8.22,0.037-12.327-0.05c-0.455-0.01-1.112-0.577-1.278-1.03c-0.143-0.391,0.135-1.257,0.482-1.445
		c0.937-0.51,0.731-1.171,0.56-1.91c-0.695-3.006-2.549-5.332-4.475-7.612c-2.083-2.465-4.005-4.997-4.743-8.256
		c-2.025-8.938,4.727-18.222,13.861-18.993c9.584-0.809,17.197,5.76,17.694,15.34c0.18,3.476-0.912,6.612-3.014,9.374
		c-1.429,1.877-3.079,3.605-4.341,5.584c-1.116,1.751-1.833,3.757-2.726,5.65C51.988-98.069,52.116-98.011,52.244-97.954z
		 M32.976-121.21c0.295,0.307,0.569,0.817,0.959,0.931c0.343,0.101,0.888-0.154,1.208-0.416c0.255-0.208,0.328-0.659,0.444-1.014
		c0.991-3.04,2.993-5.196,5.837-6.567c0.829-0.4,1.464-0.83,0.99-1.794c-0.454-0.925-1.252-0.628-1.961-0.294
		c-3.16,1.491-5.428,3.844-6.765,7.077C33.439-122.682,33.261-122.047,32.976-121.21z"/>
	<path fill="#FFFFFF" d="M45.895-90.887c-1.838,0.002-3.675-0.008-5.513,0.005c-1.013,0.007-1.826-0.308-1.9-1.429
		c-0.083-1.257,0.829-1.606,1.856-1.612c3.863-0.021,7.727,0,11.591,0.011c1.02,0.003,1.637,0.513,1.598,1.546
		c-0.038,1.02-0.7,1.476-1.695,1.477C49.853-90.888,47.874-90.889,45.895-90.887z"/>
	<path fill="#FFFFFF" d="M31.086-132.395c-0.559-0.321-1.017-0.479-1.334-0.784c-1.359-1.307-2.68-2.654-4.008-3.993
		c-0.693-0.698-0.897-1.512-0.15-2.235c0.72-0.697,1.539-0.583,2.255,0.133c1.366,1.367,2.782,2.689,4.071,4.125
		c0.331,0.368,0.46,1.14,0.329,1.632C32.135-133.088,31.524-132.791,31.086-132.395z"/>
	<path fill="#FFFFFF" d="M65.629-139.923c0.3,0.253,0.853,0.501,0.991,0.894c0.158,0.453,0.151,1.219-0.133,1.529
		c-1.46,1.594-2.985,3.14-4.606,4.566c-0.332,0.292-1.368,0.227-1.729-0.082c-0.361-0.309-0.592-1.404-0.345-1.683
		c1.519-1.721,3.181-3.319,4.822-4.929C64.803-139.799,65.154-139.791,65.629-139.923z"/>
	<path fill="#FFFFFF" d="M65.414-98.008c-0.588-0.378-1.063-0.591-1.418-0.929c-1.259-1.198-2.478-2.438-3.71-3.665
		c-0.707-0.704-1.076-1.515-0.289-2.34c0.844-0.885,1.689-0.522,2.44,0.234c1.324,1.333,2.699,2.621,3.941,4.026
		c0.318,0.36,0.408,1.149,0.255,1.631C66.501-98.636,65.875-98.378,65.414-98.008z"/>
	<path fill="#FFFFFF" d="M26.739-98.232c-1.306-0.032-2.061-1.315-1.294-2.189c1.454-1.657,3.013-3.235,4.66-4.697
		c0.333-0.296,1.416-0.145,1.844,0.193c0.334,0.263,0.477,1.392,0.208,1.694c-1.496,1.678-3.135,3.23-4.753,4.797
		C27.23-98.264,26.883-98.272,26.739-98.232z"/>
	<path fill="#FFFFFF" d="M70.249-117.55c-0.94-0.001-1.881,0.004-2.821-0.002c-0.937-0.006-1.576-0.445-1.597-1.406
		c-0.02-0.917,0.496-1.52,1.467-1.531c2.021-0.023,4.043-0.033,6.064,0.013c0.923,0.021,1.515,0.532,1.454,1.526
		c-0.06,0.972-0.673,1.393-1.604,1.4C72.224-117.544,71.236-117.549,70.249-117.55z"/>
	<path fill="#FFFFFF" d="M21.614-117.55c-0.94,0.001-1.88,0.012-2.819-0.002c-0.924-0.014-1.554-0.448-1.609-1.406
		c-0.062-1.068,0.609-1.532,1.59-1.544c1.926-0.023,3.853-0.016,5.779,0.011c0.988,0.014,1.669,0.535,1.62,1.543
		c-0.048,0.991-0.721,1.446-1.741,1.404C23.495-117.582,22.553-117.551,21.614-117.55z"/>
</g>
<g>
	<circle fill="#C72E70" cx="-455.17" cy="50" r="39.766"/>
	<g>
		<g>
			<path fill="#FFFFFF" d="M-453.271,35.683c-0.265,0.203-0.43,0.328-0.594,0.456c-2.287,1.782-4.688,3.386-7.296,4.666
				c-2.737,1.344-5.578,2.202-8.682,2.074c-2.049-0.084-4.105-0.016-6.158-0.015c-2.278,0.001-3.712,1.013-4.467,3.153
				c-0.776,2.198-0.663,4.467-0.495,6.729c0.057,0.768,0.267,1.54,0.508,2.278c0.595,1.825,2.07,3.242,4.398,3.172
				c2.324-0.07,4.653,0.013,6.979-0.024c2.032-0.033,3.954,0.423,5.826,1.151c3.458,1.345,6.518,3.362,9.437,5.615
				c0.156,0.121,0.32,0.232,0.544,0.393C-453.271,55.42-453.271,45.628-453.271,35.683z M-446.56,46.654c0-0.253,0-0.483,0-0.713
				c0-4.319,0.002-8.638-0.001-12.958c-0.001-1.6-1.126-2.777-2.63-2.771c-1.507,0.006-2.617,1.177-2.627,2.785
				c-0.007,1.153-0.002,2.306-0.002,3.459c0,10.124-0.007,20.248,0.019,30.371c0.001,0.579,0.152,1.219,0.429,1.723
				c0.563,1.024,1.791,1.447,2.888,1.138c1.15-0.324,1.92-1.336,1.922-2.577c0.007-3.987,0.003-7.974,0.003-11.961
				c0-0.25,0-0.499,0-0.731c2.537-0.63,3.755-1.988,3.683-4.049C-442.943,48.432-444.272,47.06-446.56,46.654z M-468.374,62.655
				c0.657,0,1.22,0.001,1.783,0c0.81-0.002,1.232-0.316,1.238-0.918c0.006-0.608-0.423-0.942-1.215-0.944
				c-0.684-0.001-1.37,0.021-2.052-0.016c-0.181-0.01-0.424-0.158-0.514-0.315c-0.218-0.38-0.257-0.963-0.564-1.162
				c-0.32-0.208-0.869-0.066-1.318-0.069c-0.587-0.004-1.173-0.001-1.76-0.001c-0.738,0-1.476,0-2.302,0
				c0.145,0.329,0.248,0.576,0.361,0.818c1.155,2.457,2.335,4.903,3.45,7.378c0.276,0.612,0.605,0.825,1.265,0.785
				c0.993-0.061,1.993-0.014,2.991-0.018c0.163-0.001,0.325-0.027,0.541-0.047C-467.11,66.301-467.728,64.519-468.374,62.655z
				 M-433.999,49.994c1.289,0,2.577-0.005,3.866,0.003c0.449,0.003,0.865-0.061,0.878-0.612c0.013-0.57-0.42-0.618-0.861-0.617
				c-2.538,0.002-5.076,0.002-7.614,0.001c-0.443,0-0.867,0.057-0.848,0.63c0.017,0.516,0.399,0.599,0.831,0.596
				C-436.498,49.988-435.248,49.993-433.999,49.994z M-439.527,57.165c-0.498-0.011-0.839,0.35-0.678,0.719
				c0.101,0.231,0.371,0.444,0.616,0.546c1.064,0.442,2.146,0.84,3.22,1.256c1.312,0.507,2.623,1.015,3.935,1.522
				c0.382,0.147,0.763,0.177,0.943-0.27c0.187-0.464-0.068-0.74-0.507-0.877c-0.019-0.006-0.036-0.016-0.054-0.023
				c-2.35-0.909-4.699-1.819-7.05-2.727C-439.265,57.246-439.433,57.196-439.527,57.165z M-439.695,41.368
				c0.701-0.273,1.3-0.507,1.9-0.739c1.931-0.746,3.864-1.489,5.794-2.239c0.58-0.226,0.79-0.781,0.371-1.05
				c-0.225-0.145-0.639-0.139-0.911-0.042c-1.379,0.495-2.738,1.041-4.105,1.57c-1.038,0.402-2.077,0.801-3.115,1.205
				c-0.352,0.137-0.582,0.398-0.442,0.769C-440.121,41.054-439.864,41.2-439.695,41.368z"/>
			<path fill="#FFFFFF" d="M-453.271,35.683c0,9.945,0,19.737,0,29.648c-0.223-0.161-0.387-0.272-0.544-0.393
				c-2.919-2.253-5.979-4.27-9.437-5.615c-1.872-0.728-3.794-1.184-5.826-1.151c-2.326,0.037-4.654-0.046-6.979,0.024
				c-2.328,0.07-3.803-1.347-4.398-3.172c-0.241-0.737-0.45-1.509-0.508-2.278c-0.168-2.262-0.281-4.531,0.495-6.729
				c0.755-2.139,2.188-3.152,4.467-3.153c2.053-0.001,4.108-0.069,6.158,0.015c3.104,0.128,5.945-0.73,8.682-2.074
				c2.607-1.28,5.009-2.883,7.296-4.666C-453.702,36.012-453.536,35.886-453.271,35.683z"/>
			<path fill="#FFFFFF" d="M-446.56,46.654c2.289,0.406,3.617,1.777,3.684,3.716c0.071,2.061-1.146,3.419-3.683,4.049
				c0,0.232,0,0.482,0,0.731c0,3.987,0.004,7.974-0.003,11.961c-0.002,1.242-0.772,2.253-1.922,2.577
				c-1.096,0.309-2.325-0.114-2.888-1.138c-0.277-0.504-0.428-1.144-0.429-1.723c-0.025-10.124-0.018-20.248-0.019-30.371
				c0-1.153-0.005-2.306,0.002-3.459c0.01-1.608,1.119-2.779,2.627-2.785c1.504-0.006,2.628,1.172,2.63,2.771
				c0.004,4.319,0.001,8.638,0.001,12.958C-446.56,46.172-446.56,46.402-446.56,46.654z"/>
			<path fill="#FFFFFF" d="M-468.374,62.655c0.646,1.864,1.264,3.646,1.904,5.49c-0.216,0.019-0.378,0.046-0.541,0.047
				c-0.997,0.004-1.997-0.043-2.991,0.018c-0.66,0.041-0.989-0.172-1.265-0.785c-1.116-2.475-2.296-4.921-3.45-7.378
				c-0.114-0.242-0.216-0.488-0.361-0.818c0.825,0,1.563,0,2.302,0c0.587,0,1.173-0.003,1.76,0.001
				c0.449,0.003,0.998-0.138,1.318,0.069c0.307,0.2,0.347,0.782,0.564,1.162c0.09,0.156,0.333,0.305,0.514,0.315
				c0.682,0.037,1.368,0.015,2.052,0.016c0.792,0.001,1.221,0.335,1.215,0.944c-0.006,0.603-0.428,0.916-1.238,0.918
				C-467.154,62.656-467.717,62.655-468.374,62.655z"/>
			<path fill="#FFFFFF" d="M-433.999,49.993c-1.25-0.001-2.499-0.005-3.749,0.002c-0.432,0.002-0.814-0.08-0.831-0.596
				c-0.019-0.573,0.405-0.631,0.848-0.63c2.538,0.001,5.076,0.002,7.614-0.001c0.441,0,0.874,0.048,0.861,0.617
				c-0.012,0.551-0.428,0.614-0.878,0.612C-431.422,49.988-432.71,49.994-433.999,49.993z"/>
			<path fill="#FFFFFF" d="M-439.527,57.165c0.094,0.032,0.262,0.081,0.425,0.144c2.35,0.908,4.7,1.818,7.05,2.727
				c0.018,0.007,0.035,0.017,0.054,0.023c0.439,0.137,0.694,0.413,0.507,0.877c-0.18,0.447-0.561,0.417-0.943,0.27
				c-1.312-0.506-2.623-1.015-3.935-1.522c-1.075-0.415-2.157-0.813-3.22-1.256c-0.244-0.102-0.515-0.315-0.616-0.546
				C-440.367,57.515-440.025,57.154-439.527,57.165z"/>
			<path fill="#FFFFFF" d="M-439.695,41.368c-0.17-0.168-0.426-0.314-0.506-0.526c-0.14-0.371,0.09-0.632,0.442-0.769
				c1.037-0.404,2.077-0.803,3.115-1.205c1.366-0.528,2.726-1.075,4.105-1.57c0.272-0.097,0.686-0.103,0.911,0.042
				c0.419,0.269,0.209,0.825-0.371,1.05c-1.93,0.75-3.863,1.493-5.794,2.239C-438.394,40.862-438.993,41.096-439.695,41.368z"/>
		</g>
	</g>
</g>
</svg>
