<?xml version="1.0" encoding="utf-8"?>
<!-- Generator: Adobe Illustrator 17.0.0, SVG Export Plug-In . SVG Version: 6.00 Build 0)  -->
<!DOCTYPE svg PUBLIC "-//W3C//DTD SVG 1.1//EN" "http://www.w3.org/Graphics/SVG/1.1/DTD/svg11.dtd">
<svg version="1.1" id="Layer_1" xmlns="http://www.w3.org/2000/svg" xmlns:xlink="http://www.w3.org/1999/xlink" x="0px" y="0px"
	 width="79.193px" height="79.532px" viewBox="5.734 10.234 79.193 79.532" enable-background="new 5.734 10.234 79.193 79.532"
	 xml:space="preserve">
<circle fill="#EA4E85" cx="477.118" cy="50" r="50"/>
<text transform="matrix(1 0 0 1 438.3653 60.457)" fill="#FFFFFF" font-family="'MyriadPro-Bold'" font-size="22">Naming</text>
<polygon fill="#FFFFFF" points="505.308,64.244 439.475,64.244 437.274,61.699 505.308,61.699 "/>
<g>
	<path fill="#FFFFFF" d="M57.527,33.117c-1.057,1.055-2.094,2.082-3.119,3.119c-0.196,0.198-0.328,0.065-0.48-0.034
		c-1.957-1.274-4.082-2.147-6.385-2.516C40.982,32.634,35.382,34.519,31,39.514c-7.875,8.977-4.588,23.112,6.388,27.811
		c10.686,4.576,22.859-2.262,24.475-13.779c0.614-4.379-0.305-8.453-2.723-12.169c-0.164-0.252-0.164-0.392,0.055-0.61
		c1.003-0.999,1.986-2.018,2.981-3.035c5.889,7.462,6.653,20.21-1.941,29c-8.415,8.606-22.48,8.869-31.159,0.579
		c-8.935-8.534-9.409-22.507-1.057-31.423C36.475,26.861,49.495,27.005,57.527,33.117z"/>
	<path fill="#FFFFFF" d="M50.896,39.799c-1.094,1.096-2.149,2.164-3.225,3.212c-0.094,0.091-0.342,0.102-0.486,0.053
		c-3.346-1.151-6.982-0.22-9.275,2.514c-2.197,2.62-2.669,5.618-1.36,8.764c1.26,3.03,3.629,4.805,6.904,5.147
		c6.327,0.661,10.966-5.339,8.863-11.378c-0.042-0.121-0.031-0.333,0.047-0.414c1.051-1.09,2.119-2.164,3.189-3.247
		c2.481,3.652,3.075,10.76-1.88,15.794c-4.883,4.96-12.913,5.217-18.04,0.569c-5.258-4.767-5.829-12.773-1.279-18.158
		C39.064,37.076,46.495,37.038,50.896,39.799z"/>
	<path fill="#FFFFFF" d="M63.949,26.638c-0.126,1.72-0.244,3.336-0.367,5.018c1.665-0.137,3.291-0.271,5.027-0.413
		c-0.239,0.261-0.396,0.439-0.56,0.61c-1.326,1.386-2.646,2.777-3.989,4.146c-0.17,0.173-0.452,0.289-0.697,0.325
		c-0.565,0.083-1.143,0.079-1.709,0.157c-0.22,0.03-0.473,0.135-0.627,0.29c-4.261,4.283-8.512,8.576-12.755,12.877
		c-0.111,0.112-0.171,0.356-0.138,0.514c0.456,2.228-0.836,4.239-3.05,4.716c-2.033,0.437-4.045-0.917-4.526-3.045
		c-0.593-2.624,1.807-5.075,4.489-4.56c0.376,0.072,0.594-0.011,0.851-0.271c4.184-4.24,8.381-8.466,12.562-12.71
		c0.178-0.181,0.26-0.483,0.323-0.744c0.066-0.275,0.1-0.573,0.07-0.853c-0.099-0.924,0.355-1.533,1.004-2.126
		c1.267-1.158,2.471-2.385,3.703-3.582C63.658,26.892,63.764,26.804,63.949,26.638z"/>
</g>
<g>
	<circle fill="#C72E70" cx="-282.124" cy="-334.874" r="39.766"/>
	<g>
		<path fill="#FFFFFF" d="M-283.973-302.948c-0.693-0.604-1.347-1.262-2.089-1.797c-0.692-0.498-1.433-1.018-2.234-1.25
			c-0.93-0.269-1.561-0.778-1.305-1.641c0.161-0.542,0.967-1.252,1.499-1.265c4.003-0.102,8.011-0.099,12.013,0.015
			c0.517,0.015,1.29,0.789,1.42,1.337c0.093,0.388-0.637,1.346-1.103,1.423c-1.296,0.213-2.104,0.861-2.792,1.907
			c-0.339,0.516-0.949,0.853-1.437,1.271C-281.324-302.948-282.649-302.948-283.973-302.948z"/>
		<path fill="#FFFFFF" d="M-281.419-366.8c0.271,0.813,0.712,1.613,0.776,2.442c0.124,1.595,0.043,3.208,0.031,4.813
			c-0.008,1.013-0.375,1.819-1.52,1.807c-1.144-0.011-1.49-0.827-1.493-1.838c-0.005-1.747-0.1-3.502,0.048-5.236
			c0.059-0.687,0.665-1.326,1.022-1.988C-282.176-366.8-281.797-366.8-281.419-366.8z"/>
		<path fill="#FFFFFF" d="M-275.88-316.828c0.379,0.341,0.849,0.623,1.117,1.036c0.582,0.898-0.06,2.126-1.193,2.139
			c-4.109,0.047-8.22,0.037-12.327-0.05c-0.455-0.01-1.112-0.577-1.278-1.03c-0.143-0.391,0.135-1.257,0.482-1.445
			c0.937-0.51,0.731-1.171,0.56-1.91c-0.695-3.006-2.549-5.332-4.475-7.612c-2.083-2.465-4.005-4.997-4.743-8.256
			c-2.025-8.938,4.727-18.222,13.861-18.993c9.584-0.809,17.197,5.76,17.694,15.34c0.18,3.476-0.912,6.612-3.014,9.374
			c-1.429,1.877-3.079,3.605-4.341,5.584c-1.116,1.751-1.833,3.757-2.726,5.65C-276.136-316.943-276.008-316.885-275.88-316.828z
			 M-295.148-340.084c0.295,0.307,0.569,0.817,0.959,0.931c0.343,0.101,0.888-0.154,1.208-0.416
			c0.255-0.208,0.328-0.659,0.444-1.014c0.991-3.04,2.993-5.196,5.837-6.567c0.829-0.4,1.464-0.83,0.99-1.794
			c-0.454-0.925-1.252-0.628-1.961-0.294c-3.16,1.491-5.428,3.844-6.765,7.077C-294.685-341.556-294.863-340.921-295.148-340.084z"
			/>
		<path fill="#FFFFFF" d="M-282.229-309.761c-1.838,0.002-3.675-0.008-5.513,0.005c-1.013,0.007-1.826-0.308-1.9-1.429
			c-0.083-1.257,0.829-1.606,1.856-1.612c3.863-0.021,7.727,0,11.591,0.011c1.02,0.003,1.637,0.513,1.598,1.546
			c-0.038,1.02-0.7,1.476-1.695,1.477C-278.271-309.763-280.25-309.763-282.229-309.761z"/>
		<path fill="#FFFFFF" d="M-297.038-351.269c-0.559-0.321-1.017-0.479-1.334-0.784c-1.359-1.307-2.68-2.654-4.008-3.993
			c-0.693-0.698-0.897-1.512-0.15-2.235c0.72-0.697,1.539-0.583,2.255,0.133c1.366,1.367,2.782,2.69,4.071,4.125
			c0.331,0.368,0.46,1.14,0.329,1.632C-295.989-351.962-296.6-351.665-297.038-351.269z"/>
		<path fill="#FFFFFF" d="M-262.495-358.797c0.3,0.253,0.853,0.501,0.991,0.894c0.158,0.453,0.151,1.219-0.133,1.529
			c-1.46,1.594-2.985,3.14-4.606,4.566c-0.332,0.292-1.368,0.227-1.729-0.082s-0.592-1.404-0.345-1.683
			c1.519-1.722,3.181-3.319,4.822-4.929C-263.321-358.673-262.97-358.665-262.495-358.797z"/>
		<path fill="#FFFFFF" d="M-262.709-316.882c-0.588-0.378-1.063-0.591-1.418-0.93c-1.259-1.198-2.478-2.438-3.71-3.665
			c-0.707-0.704-1.076-1.515-0.289-2.34c0.844-0.885,1.689-0.522,2.44,0.234c1.324,1.333,2.699,2.621,3.941,4.026
			c0.318,0.36,0.408,1.149,0.255,1.631C-261.623-317.51-262.249-317.252-262.709-316.882z"/>
		<path fill="#FFFFFF" d="M-301.385-317.106c-1.306-0.032-2.061-1.315-1.294-2.189c1.454-1.657,3.013-3.235,4.66-4.697
			c0.333-0.296,1.416-0.145,1.844,0.193c0.334,0.263,0.477,1.392,0.208,1.694c-1.496,1.678-3.135,3.23-4.753,4.797
			C-300.894-317.138-301.241-317.146-301.385-317.106z"/>
		<path fill="#FFFFFF" d="M-257.875-336.424c-0.94-0.001-1.881,0.004-2.821-0.002c-0.937-0.006-1.576-0.445-1.597-1.406
			c-0.02-0.917,0.496-1.52,1.467-1.531c2.021-0.023,4.043-0.033,6.064,0.013c0.923,0.021,1.515,0.532,1.454,1.526
			c-0.06,0.972-0.673,1.393-1.604,1.4C-255.9-336.418-256.888-336.423-257.875-336.424z"/>
		<path fill="#FFFFFF" d="M-306.51-336.424c-0.94,0.001-1.88,0.012-2.819-0.002c-0.924-0.014-1.554-0.448-1.609-1.406
			c-0.062-1.068,0.609-1.532,1.59-1.544c1.926-0.023,3.853-0.016,5.779,0.011c0.988,0.014,1.669,0.535,1.62,1.543
			c-0.048,0.991-0.721,1.447-1.741,1.404C-304.629-336.456-305.57-336.425-306.51-336.424z"/>
	</g>
</g>
</svg>
